<svg viewBox="0 0 500 540" xmlns="http://www.w3.org/2000/svg" font-family="system-ui,-apple-system,sans-serif">
  <!-- Shadow -->
  <rect x="4" y="4" width="492" height="532" rx="16" fill="#00000015"/>
  <!-- Card -->
  <rect width="492" height="532" rx="16" fill="white" stroke="#e5e7eb" stroke-width="1.2"/>

  <!-- Header bar -->
  <rect width="492" height="52" rx="16" fill="#0f172a"/>
  <rect y="36" width="492" height="16" fill="#0f172a"/>
  <text x="20" y="20" fill="#94a3b8" font-size="8">ETW München · Schwabing</text>
  <text x="20" y="36" fill="white" font-size="14" font-weight="800">📊 Cashflow-Analyse</text>
  <rect x="400" y="10" width="76" height="30" rx="10" fill="#ecfdf5"/>
  <text x="438" y="26" text-anchor="middle" fill="#059669" font-size="11" font-weight="900">+312 €</text>
  <text x="438" y="37" text-anchor="middle" fill="#34d399" font-size="7.5">/Monat</text>

  <!-- Sub tabs -->
  <rect x="12" y="60" width="86" height="26" rx="13" fill="#1e293b"/>
  <text x="55" y="77" text-anchor="middle" fill="white" font-size="9" font-weight="700">Cashflow</text>
  <rect x="106" y="60" width="70" height="26" rx="13" fill="#f3f4f6"/>
  <text x="141" y="77" text-anchor="middle" fill="#6b7280" font-size="9">Finanzierung</text>
  <rect x="184" y="60" width="64" height="26" rx="13" fill="#f3f4f6"/>
  <text x="216" y="77" text-anchor="middle" fill="#6b7280" font-size="9">Steuer</text>
  <rect x="256" y="60" width="56" height="26" rx="13" fill="#f3f4f6"/>
  <text x="284" y="77" text-anchor="middle" fill="#6b7280" font-size="9">Mieter</text>

  <!-- Monthly overview KPIs -->
  <rect x="12" y="96" width="140" height="60" rx="12" fill="#ecfdf5" stroke="#d1fae5" stroke-width="1"/>
  <text x="22" y="114" fill="#6b7280" font-size="7.5" font-weight="600">KALTMIETE</text>
  <text x="22" y="135" fill="#059669" font-size="18" font-weight="900">1.620 €</text>
  <text x="22" y="148" fill="#34d399" font-size="8">/Monat</text>

  <rect x="160" y="96" width="140" height="60" rx="12" fill="white" stroke="#e5e7eb" stroke-width="1"/>
  <text x="170" y="114" fill="#9ca3af" font-size="7.5" font-weight="600">KREDITRATE</text>
  <text x="170" y="135" fill="#ef4444" font-size="18" font-weight="900">−1.188 €</text>
  <text x="170" y="148" fill="#9ca3af" font-size="8">/Monat</text>

  <rect x="308" y="96" width="172" height="60" rx="12" fill="white" stroke="#e5e7eb" stroke-width="1"/>
  <text x="318" y="114" fill="#9ca3af" font-size="7.5" font-weight="600">NETTOCASHFLOW</text>
  <text x="318" y="135" fill="#059669" font-size="18" font-weight="900">+312 €</text>
  <text x="318" y="148" fill="#9ca3af" font-size="8">/Monat nach NK</text>

  <!-- Chart Area -->
  <rect x="12" y="166" width="468" height="186" rx="12" fill="#f8fafc" stroke="#e5e7eb" stroke-width="1"/>
  <text x="24" y="184" fill="#374151" font-size="10" font-weight="700">Cashflow-Prognose · 25 Jahre</text>

  <!-- Chart grid -->
  <line x1="24" y1="320" x2="468" y2="320" stroke="#e5e7eb" stroke-width="1"/>
  <line x1="24" y1="290" x2="468" y2="290" stroke="#f3f4f6" stroke-width="1"/>
  <line x1="24" y1="260" x2="468" y2="260" stroke="#f3f4f6" stroke-width="1"/>
  <line x1="24" y1="230" x2="468" y2="230" stroke="#f3f4f6" stroke-width="1"/>
  <line x1="24" y1="200" x2="468" y2="200" stroke="#f3f4f6" stroke-width="1"/>

  <!-- Y axis -->
  <text x="20" y="323" text-anchor="end" fill="#d1d5db" font-size="7">0</text>
  <text x="20" y="293" text-anchor="end" fill="#d1d5db" font-size="7">50k</text>
  <text x="20" y="263" text-anchor="end" fill="#d1d5db" font-size="7">100k</text>
  <text x="20" y="233" text-anchor="end" fill="#d1d5db" font-size="7">150k</text>
  <text x="20" y="203" text-anchor="end" fill="#d1d5db" font-size="7">200k</text>

  <!-- Cashflow Area (cumulative, positive) -->
  <defs>
    <linearGradient id="cg" x1="0" y1="0" x2="0" y2="1">
      <stop offset="0%" stop-color="#4f46e5" stop-opacity="0.2"/>
      <stop offset="100%" stop-color="#4f46e5" stop-opacity="0.01"/>
    </linearGradient>
    <linearGradient id="tg" x1="0" y1="0" x2="0" y2="1">
      <stop offset="0%" stop-color="#10b981" stop-opacity="0.2"/>
      <stop offset="100%" stop-color="#10b981" stop-opacity="0.01"/>
    </linearGradient>
  </defs>
  <!-- Tilgung area (below) -->
  <path d="M 28 318 L 28 314 C 80 309 130 300 180 288 C 230 276 280 262 330 245 C 380 228 420 215 468 205 L 468 318 Z" fill="url(#tg)"/>
  <path d="M 28 314 C 80 309 130 300 180 288 C 230 276 280 262 330 245 C 380 228 420 215 468 205" fill="none" stroke="#10b981" stroke-width="2" stroke-linecap="round"/>

  <!-- Cashflow cumul line (above) -->
  <path d="M 28 320 L 28 318 C 80 314 130 308 180 299 C 230 289 280 276 330 260 C 380 244 420 230 468 218 L 468 320 Z" fill="url(#cg)" opacity="0.5"/>
  <path d="M 28 318 C 80 314 130 308 180 299 C 230 289 280 276 330 260 C 380 244 420 230 468 218" fill="none" stroke="#4f46e5" stroke-width="2.5" stroke-linecap="round"/>

  <!-- X labels -->
  <text x="28" y="336" fill="#d1d5db" font-size="7.5">2024</text>
  <text x="120" y="336" fill="#d1d5db" font-size="7.5">2027</text>
  <text x="212" y="336" fill="#d1d5db" font-size="7.5">2030</text>
  <text x="304" y="336" fill="#d1d5db" font-size="7.5">2033</text>
  <text x="396" y="336" fill="#d1d5db" font-size="7.5">2036</text>
  <text x="454" y="336" fill="#d1d5db" font-size="7.5">2048</text>

  <!-- Legend -->
  <line x1="300" y1="182" x2="316" y2="182" stroke="#4f46e5" stroke-width="2.5"/>
  <text x="320" y="186" fill="#6b7280" font-size="8">Kum. Cashflow</text>
  <line x1="380" y1="182" x2="396" y2="182" stroke="#10b981" stroke-width="2"/>
  <text x="400" y="186" fill="#6b7280" font-size="8">Tilgung</text>

  <!-- Jahres-Cashflow Tabelle -->
  <text x="20" y="370" fill="#374151" font-size="10.5" font-weight="700">Jahresübersicht</text>

  <!-- Table header -->
  <rect x="12" y="376" width="468" height="24" rx="6" fill="#f3f4f6"/>
  <text x="24" y="391" fill="#9ca3af" font-size="8" font-weight="600">JAHR</text>
  <text x="160" y="391" text-anchor="middle" fill="#9ca3af" font-size="8" font-weight="600">MIETE</text>
  <text x="260" y="391" text-anchor="middle" fill="#9ca3af" font-size="8" font-weight="600">KREDIT</text>
  <text x="360" y="391" text-anchor="middle" fill="#9ca3af" font-size="8" font-weight="600">CASHFLOW</text>
  <text x="464" y="391" text-anchor="end" fill="#9ca3af" font-size="8" font-weight="600">TILGUNG</text>

  <!-- Row 1 -->
  <rect x="12" y="400" width="468" height="28" rx="0" fill="white"/>
  <text x="24" y="418" fill="#374151" font-size="9.5" font-weight="600">2024</text>
  <text x="160" y="418" text-anchor="middle" fill="#059669" font-size="9.5">19.440 €</text>
  <text x="260" y="418" text-anchor="middle" fill="#ef4444" font-size="9.5">−14.256 €</text>
  <text x="360" y="418" text-anchor="middle" fill="#059669" font-size="10" font-weight="700">+3.744 €</text>
  <text x="464" y="418" text-anchor="end" fill="#3b82f6" font-size="9.5">+5.428 €</text>

  <!-- Row 2 -->
  <rect x="12" y="428" width="468" height="28" rx="0" fill="#f9fafb"/>
  <text x="24" y="446" fill="#374151" font-size="9.5" font-weight="600">2025</text>
  <text x="160" y="446" text-anchor="middle" fill="#059669" font-size="9.5">20.049 €</text>
  <text x="260" y="446" text-anchor="middle" fill="#ef4444" font-size="9.5">−14.256 €</text>
  <text x="360" y="446" text-anchor="middle" fill="#059669" font-size="10" font-weight="700">+4.353 €</text>
  <text x="464" y="446" text-anchor="end" fill="#3b82f6" font-size="9.5">+5.759 €</text>

  <!-- Row 3 -->
  <rect x="12" y="456" width="468" height="28" rx="0" fill="white"/>
  <text x="24" y="474" fill="#374151" font-size="9.5" font-weight="600">2026</text>
  <text x="160" y="474" text-anchor="middle" fill="#059669" font-size="9.5">20.080 €</text>
  <text x="260" y="474" text-anchor="middle" fill="#ef4444" font-size="9.5">−14.256 €</text>
  <text x="360" y="474" text-anchor="middle" fill="#059669" font-size="10" font-weight="700">+4.824 €</text>
  <text x="464" y="474" text-anchor="end" fill="#3b82f6" font-size="9.5">+6.112 €</text>

  <!-- Row 4 -->
  <rect x="12" y="484" width="468" height="28" rx="0" fill="#f9fafb"/>
  <text x="24" y="502" fill="#9ca3af" font-size="9.5">2027</text>
  <text x="160" y="502" text-anchor="middle" fill="#9ca3af" font-size="9.5">20.683 €</text>
  <text x="260" y="502" text-anchor="middle" fill="#9ca3af" font-size="9.5">−14.256 €</text>
  <text x="360" y="502" text-anchor="middle" fill="#9ca3af" font-size="9.5">+5.427 €</text>
  <text x="464" y="502" text-anchor="end" fill="#9ca3af" font-size="9.5">+6.488 €</text>

  <!-- Bottom border radius fix -->
  <rect x="12" y="510" width="468" height="10" fill="white"/>
  <rect x="0" y="515" width="492" height="17" rx="0" fill="white"/>
  <rect x="0" y="520" width="492" height="12" rx="16" fill="white"/>
</svg>
