<svg viewBox="0 0 780 480" xmlns="http://www.w3.org/2000/svg" font-family="system-ui,-apple-system,sans-serif">
  <!-- Browser chrome -->
  <rect width="780" height="480" rx="14" fill="#1e293b"/>
  <rect x="1" y="1" width="778" height="36" rx="13" fill="#334155"/>
  <circle cx="22" cy="19" r="5.5" fill="#ef4444" opacity="0.85"/>
  <circle cx="40" cy="19" r="5.5" fill="#f59e0b" opacity="0.85"/>
  <circle cx="58" cy="19" r="5.5" fill="#22c55e" opacity="0.85"/>
  <rect x="110" y="11" width="380" height="16" rx="8" fill="#1e293b"/>
  <text x="300" y="23" text-anchor="middle" fill="#64748b" font-size="9">immobilienportfolio.app</text>

  <!-- App area -->
  <rect x="1" y="37" width="778" height="442" rx="0" fill="#f1f5f9"/>

  <!-- App header -->
  <rect x="1" y="37" width="778" height="46" fill="#0f172a"/>
  <text x="22" y="65" fill="white" font-size="15" font-weight="700">🏠</text>
  <text x="42" y="65" fill="white" font-size="14" font-weight="800">Immobilien</text>
  <text x="124" y="65" fill="#60a5fa" font-size="14" font-weight="800">Portfolio</text>
  <circle cx="750" cy="60" r="14" fill="#4f46e5"/>
  <text x="750" y="65" text-anchor="middle" fill="white" font-size="11" font-weight="700">M</text>

  <!-- Main bg -->
  <rect x="1" y="83" width="778" height="396" fill="#f1f5f9"/>

  <!-- KPI Cards -->
  <!-- Cashflow (emerald) -->
  <rect x="16" y="94" width="175" height="80" rx="14" fill="#ecfdf5" stroke="#a7f3d0" stroke-width="1.2"/>
  <text x="28" y="113" fill="#6b7280" font-size="7.5" font-weight="600" letter-spacing="0.5">MONATL. CASHFLOW</text>
  <text x="28" y="137" fill="#059669" font-size="24" font-weight="900">+847 €</text>
  <text x="28" y="152" fill="#34d399" font-size="8">+10.164 € p.a.</text>
  <text x="176" y="152" text-anchor="end" fill="#6ee7b7" font-size="8">▲ nach Kredit</text>

  <!-- Mieteinnahmen -->
  <rect x="201" y="94" width="175" height="80" rx="14" fill="white" stroke="#e5e7eb" stroke-width="1.2"/>
  <text x="213" y="113" fill="#9ca3af" font-size="7.5" font-weight="600" letter-spacing="0.5">MIETEINNAHMEN</text>
  <text x="213" y="137" fill="#1f2937" font-size="24" font-weight="900">2.340 €</text>
  <text x="213" y="152" fill="#9ca3af" font-size="8">28.080 € p.a.</text>

  <!-- Portfoliowert -->
  <rect x="386" y="94" width="175" height="80" rx="14" fill="white" stroke="#e5e7eb" stroke-width="1.2"/>
  <text x="398" y="113" fill="#9ca3af" font-size="7.5" font-weight="600" letter-spacing="0.5">PORTFOLIOWERT</text>
  <text x="398" y="137" fill="#0f172a" font-size="24" font-weight="900">742.000 €</text>
  <text x="398" y="152" fill="#10b981" font-size="8" font-weight="600">▲ 62.000 € Wertzuwachs</text>

  <!-- EK-Rendite -->
  <rect x="571" y="94" width="191" height="80" rx="14" fill="white" stroke="#e5e7eb" stroke-width="1.2"/>
  <text x="583" y="113" fill="#9ca3af" font-size="7.5" font-weight="600" letter-spacing="0.5">EK-RENDITE</text>
  <text x="583" y="137" fill="#d97706" font-size="24" font-weight="900">+8,2 %</text>
  <text x="583" y="152" fill="#9ca3af" font-size="8">EK: 148.000 €</text>

  <!-- Left: Property List -->
  <!-- Card 1 -->
  <rect x="16" y="188" width="368" height="68" rx="13" fill="white" stroke="#e5e7eb" stroke-width="1"/>
  <rect x="16" y="188" width="5" height="68" rx="3" fill="#4f46e5"/>
  <text x="32" y="209" fill="#111827" font-size="11.5" font-weight="700">ETW München · Schwabing</text>
  <text x="32" y="224" fill="#9ca3af" font-size="9">Kaufimmobilie  ·  68 m²  ·  Seit 2021</text>
  <rect x="32" y="232" width="56" height="15" rx="7.5" fill="#ecfdf5"/>
  <text x="60" y="243" text-anchor="middle" fill="#059669" font-size="8" font-weight="700">+312 €/Mo</text>
  <rect x="96" y="232" width="48" height="15" rx="7.5" fill="#eff6ff"/>
  <text x="120" y="243" text-anchor="middle" fill="#2563eb" font-size="8" font-weight="600">4,2 % Rend.</text>
  <text x="372" y="228" text-anchor="end" fill="#111827" font-size="14" font-weight="800">380.000 €</text>

  <!-- Card 2 -->
  <rect x="16" y="266" width="368" height="68" rx="13" fill="white" stroke="#e5e7eb" stroke-width="1"/>
  <rect x="16" y="266" width="5" height="68" rx="3" fill="#f59e0b"/>
  <text x="32" y="287" fill="#111827" font-size="11.5" font-weight="700">MFH Berlin · Prenzlauer Berg</text>
  <text x="32" y="302" fill="#9ca3af" font-size="9">Mehrfamilienhaus  ·  4 Wohnungen  ·  Seit 2019</text>
  <rect x="32" y="310" width="68" height="15" rx="7.5" fill="#ecfdf5"/>
  <text x="66" y="321" text-anchor="middle" fill="#059669" font-size="8" font-weight="700">+1.240 €/Mo</text>
  <rect x="108" y="310" width="48" height="15" rx="7.5" fill="#eff6ff"/>
  <text x="132" y="321" text-anchor="middle" fill="#2563eb" font-size="8" font-weight="600">5,8 % Rend.</text>
  <text x="372" y="306" text-anchor="end" fill="#111827" font-size="14" font-weight="800">680.000 €</text>

  <!-- Card 3 -->
  <rect x="16" y="344" width="368" height="68" rx="13" fill="white" stroke="#e5e7eb" stroke-width="1"/>
  <rect x="16" y="344" width="5" height="68" rx="3" fill="#8b5cf6"/>
  <text x="32" y="365" fill="#111827" font-size="11.5" font-weight="700">ETW Hamburg · Altona</text>
  <text x="32" y="380" fill="#9ca3af" font-size="9">Kaufimmobilie  ·  52 m²  ·  Seit 2023</text>
  <rect x="32" y="388" width="56" height="15" rx="7.5" fill="#ecfdf5"/>
  <text x="60" y="399" text-anchor="middle" fill="#059669" font-size="8" font-weight="700">+156 €/Mo</text>
  <rect x="96" y="388" width="48" height="15" rx="7.5" fill="#eff6ff"/>
  <text x="120" y="399" text-anchor="middle" fill="#2563eb" font-size="8" font-weight="600">3,9 % Rend.</text>
  <text x="372" y="384" text-anchor="end" fill="#111827" font-size="14" font-weight="800">245.000 €</text>

  <!-- + Neue Immobilie -->
  <rect x="16" y="422" width="368" height="40" rx="13" fill="white" stroke="#e5e7eb" stroke-width="1" stroke-dasharray="5,3"/>
  <text x="200" y="446" text-anchor="middle" fill="#9ca3af" font-size="10">+ Neue Immobilie hinzufügen</text>

  <!-- Right: Cashflow Chart -->
  <rect x="400" y="188" width="362" height="274" rx="14" fill="white" stroke="#e5e7eb" stroke-width="1"/>
  <text x="416" y="210" fill="#111827" font-size="11" font-weight="700">📈 Cashflow-Prognose 25 Jahre</text>
  <text x="416" y="224" fill="#9ca3af" font-size="8.5">Kumulierter Vermögensaufbau</text>

  <!-- Chart grid lines -->
  <line x1="416" y1="380" x2="748" y2="380" stroke="#f3f4f6" stroke-width="1"/>
  <line x1="416" y1="340" x2="748" y2="340" stroke="#f3f4f6" stroke-width="1"/>
  <line x1="416" y1="300" x2="748" y2="300" stroke="#f3f4f6" stroke-width="1"/>
  <line x1="416" y1="260" x2="748" y2="260" stroke="#f3f4f6" stroke-width="1"/>

  <!-- Y axis labels -->
  <text x="412" y="384" text-anchor="end" fill="#d1d5db" font-size="7.5">0</text>
  <text x="412" y="344" text-anchor="end" fill="#d1d5db" font-size="7.5">100k</text>
  <text x="412" y="304" text-anchor="end" fill="#d1d5db" font-size="7.5">300k</text>
  <text x="412" y="264" text-anchor="end" fill="#d1d5db" font-size="7.5">500k</text>

  <!-- Chart area gradient fill -->
  <defs>
    <linearGradient id="g1" x1="0" y1="0" x2="0" y2="1">
      <stop offset="0%" stop-color="#4f46e5" stop-opacity="0.18"/>
      <stop offset="100%" stop-color="#4f46e5" stop-opacity="0.01"/>
    </linearGradient>
  </defs>
  <path d="M 416 380 L 416 368 C 448 362 472 348 500 330 C 528 312 548 290 576 268 C 604 246 628 232 656 218 C 676 208 706 200 748 244 L 748 380 Z" fill="url(#g1)"/>
  <path d="M 416 368 C 448 362 472 348 500 330 C 528 312 548 290 576 268 C 604 246 628 232 656 218 C 676 208 706 200 748 244" fill="none" stroke="#4f46e5" stroke-width="2.5" stroke-linecap="round" stroke-linejoin="round"/>

  <!-- X axis labels -->
  <text x="416" y="396" fill="#d1d5db" font-size="7.5">2024</text>
  <text x="490" y="396" fill="#d1d5db" font-size="7.5">2027</text>
  <text x="564" y="396" fill="#d1d5db" font-size="7.5">2030</text>
  <text x="638" y="396" fill="#d1d5db" font-size="7.5">2033</text>
  <text x="718" y="396" fill="#d1d5db" font-size="7.5">2036</text>

  <!-- Tooltip dot on chart -->
  <circle cx="576" cy="268" r="5" fill="#4f46e5"/>
  <circle cx="576" cy="268" r="3" fill="white"/>
  <rect x="534" y="248" width="88" height="28" rx="6" fill="#1e293b"/>
  <text x="578" y="262" text-anchor="middle" fill="white" font-size="8.5" font-weight="700">2030: +284.000 €</text>
  <text x="578" y="272" text-anchor="middle" fill="#94a3b8" font-size="7">Kum. Cashflow</text>

  <!-- Bottom KPIs -->
  <rect x="400" y="474" width="0" height="0"/>
  <rect x="400" y="418" width="362" height="44" rx="0" fill="#f8fafc" stroke="#e5e7eb" stroke-width="1"/>
  <line x1="520" y1="420" x2="520" y2="460" stroke="#e5e7eb" stroke-width="1"/>
  <line x1="640" y1="420" x2="640" y2="460" stroke="#e5e7eb" stroke-width="1"/>
  <text x="460" y="435" text-anchor="middle" fill="#9ca3af" font-size="8">Restschuld heute</text>
  <text x="460" y="452" text-anchor="middle" fill="#ef4444" font-size="12" font-weight="800">−524.000 €</text>
  <text x="580" y="435" text-anchor="middle" fill="#9ca3af" font-size="8">Freies Vermögen</text>
  <text x="580" y="452" text-anchor="middle" fill="#d97706" font-size="12" font-weight="800">218.000 €</text>
  <text x="700" y="435" text-anchor="middle" fill="#9ca3af" font-size="8">Tilgung / Jahr</text>
  <text x="700" y="452" text-anchor="middle" fill="#059669" font-size="12" font-weight="800">+18.400 €</text>
</svg>
